<svg xmlns="http://www.w3.org/2000/svg" width="200" viewBox="0 0 133.1 57.799999"><path fill="#e30613" d="M114.1 8.2c-.9-.9-1.4-2.1-1.4-3.4 0-1.3.5-2.4 1.4-3.4.9-1 2-1.4 3.3-1.4 1.3 0 2.4.5 3.3 1.4.9.9 1.4 2.1 1.4 3.4 0 1.3-.5 2.5-1.4 3.4-.9.9-2.1 1.4-3.3 1.4-1.3 0-2.4-.5-3.3-1.4zm19 10.9v-2.9c0-2.8-2.2-5-5-5h-21.3c-2.8 0-5 2.3-5 5v11h23.8v1.7h-23.8v2.9c0 2.8 2.2 5 5 5h21.3c2.8 0 5-2.2 5-5v-11h-23.8v-1.7h23.8z"/><path fill="#00497b" d="M0 13.4c0-1.5.7-2.3 2.2-2.3h14v3.2c0 1.5-.8 2.2-2.3 2.2H6.4v4.6h8.4v5.2H6.4v5h10v3.2c0 1.5-.8 2.2-2.3 2.2H2.2c-1.5 0-2.2-.8-2.2-2.3v-21zm19.1 0c0-1.5.7-2.3 2.2-2.3h8.3c5.9 0 9.2 2.7 9.2 7.7 0 3.5-1.3 5.7-4.5 7l5 9.8c.2.4.4.7.4 1.1h-5.5c-1.2 0-1.6 0-2.2-1.2l-4.5-9.3h-2v10.4h-6.4V13.4zm6.4 3.2v4.6h3.7c1.8 0 3.3-.2 3.3-2.3 0-2-1.4-2.3-3.3-2.3h-3.7zm23.9-5.7c5.3 0 8.1.6 8.1 3.1v2.5h-7.3c-2 0-2.5.5-2.5 1.6 0 3.1 11.2 2.4 11.2 11.1 0 4.1-2.4 7.8-9.6 7.8-4.7 0-8.5-.8-8.5-3.1v-2.5h8.6c1.8 0 2.6-.6 2.6-1.8 0-3.4-11.1-2.7-11.1-11.6 0-4 2.6-7.1 8.5-7.1zm27.1.2v3.2c0 1.5-.8 2.2-2.2 2.2h-3.2v20.3h-6.4V16.6h-5.5v-3.3c0-1.5.8-2.2 2.2-2.2h15.1zm2 2.3c0-1.5.7-2.3 2.2-2.3h14v3.2c0 1.5-.8 2.2-2.3 2.2h-7.5v4.6h8.4v5.2h-8.4v5h10v3.2c0 1.5-.8 2.2-2.3 2.2h-12c-1.5 0-2.2-.8-2.2-2.3v-21zM8.6 53.8c0 .9-1 1.1-3.4 1.1-3.4 0-5-2-5-6.5s1.6-6.5 5-6.5c2.4 0 3.2.2 3.2 1.1v.6H5.2c-2.2 0-3.1 1.1-3.1 4.8 0 3.7.9 4.8 3.1 4.8h1.5v-3.9c0-.6.2-1 .8-1h1.1v5.5zm2.1 1v-10h.9c.6 0 .9.5.9 1.2.8-1 1.8-1.3 2.6-1.3.3 0 .7.1.7.5v1.3h-.5c-1.5 0-2.2.4-2.8.8v7.5h-1.8zm5.4-5c0-2.8.9-5.1 4.1-5.1 3.2 0 4.1 2.3 4.1 5.1s-.9 5.1-4.1 5.1c-3.1 0-4.1-2.3-4.1-5.1zm6.3 0c0-2.5-.5-3.8-2.2-3.8-1.7 0-2.2 1.3-2.2 3.8s.5 3.8 2.2 3.8c1.7 0 2.2-1.3 2.2-3.8zm11.2-5v10h-.9c-.6 0-.9-.3-.9-.8v-.3c-.8.9-1.9 1.3-2.8 1.3-2 0-2.9-1.2-2.9-3.1v-7.1h1.8v7c0 1.2.7 1.7 1.8 1.7.7 0 1.5-.4 2.1-.8v-7.8h1.8zm4.1 13h-1.8v-13h.9c.6 0 .9.3.9.8v.3c.6-.7 1.5-1.3 2.6-1.3 2.4 0 3.5 1.9 3.5 5.1 0 3.2-1.1 5.1-3.5 5.1-1.1 0-2-.6-2.6-1.3v4.3zm2-11.7c-.8 0-1.5.4-2 .8v5.6c.5.5 1.2.8 2 .8 1.6 0 2.2-1.3 2.2-3.6s-.6-3.6-2.2-3.6z"/></svg>
